<svg width="40" height="40" viewBox="0 0 40 40" xmlns="http://www.w3.org/2000/svg"><title>fast</title><path d="M0 20v-.59c0-.328.266-.586.594-.586h1.165c.333 0 .594.265.594.593V20c0 9.746 7.9 17.647 17.647 17.647h.593c.316 0 .583.266.583.594v1.165c0 .333-.265.594-.593.594H20C8.954 40 0 31.046 0 20zm40 0v.586c0 .323-.266.59-.594.59h-1.165c-.333 0-.594-.265-.594-.593V20c0-9.746-7.9-17.647-17.647-17.647h-.586c-.33 0-.59-.266-.59-.594V.594c0-.333.263-.594.588-.594H20c11.046 0 20 8.954 20 20zm-20 8.235c-4.548 0-8.235-3.687-8.235-8.235s3.687-8.235 8.235-8.235 8.235 3.687 8.235 8.235-3.687 8.235-8.235 8.235z" fill="#FFF" fill-rule="nonzero"/></svg>